HIERARCHY
ROOT Hips
{
    OFFSET   0.000000   0.000000   0.000000
    CHANNELS 6 Xposition Yposition Zposition Zrotation Xrotation Yrotation
    JOINT Chest
    {
        OFFSET   0.000000   8.007230   0.000000
        CHANNELS 3 Zrotation Xrotation Yrotation
        JOINT Chest2
        {
            OFFSET   0.000000  22.077100   0.000000
            CHANNELS 3 Zrotation Xrotation Yrotation
            JOINT Neck
            {
                OFFSET   0.000000  23.255100   0.000000
                CHANNELS 3 Zrotation Xrotation Yrotation
                JOINT Head
                {
                    OFFSET   0.000000  14.370100   1.956600
                    CHANNELS 3 Zrotation Xrotation Yrotation
                    End Site
                    {
                        OFFSET   0.000000  19.566000   0.000000
                    }
                }
            }
            JOINT LeftCollar
            {
                OFFSET   3.911900  19.017000  -0.467063
                CHANNELS 3 Zrotation Xrotation Yrotation
                JOINT LeftShoulder
                {
                    OFFSET  10.383700   0.000000   0.000000
                    CHANNELS 3 Zrotation Xrotation Yrotation
                    JOINT LeftElbow
                    {
                        OFFSET  26.662100   0.001193   0.000980
                        CHANNELS 3 Zrotation Xrotation Yrotation
                        JOINT LeftWrist
                        {
                            OFFSET  28.869000  -0.000059  -0.000082
                            CHANNELS 3 Zrotation Xrotation Yrotation
                            JOINT LeftFinger0
                            {
                                OFFSET   2.044650  -2.323450   3.252850
                                CHANNELS 3 Zrotation Xrotation Yrotation
                                JOINT LeftFinger01
                                {
                                    OFFSET   3.088130   0.000000   0.000000
                                    CHANNELS 3 Zrotation Xrotation Yrotation
                                    JOINT LeftFinger02
                                    {
                                        OFFSET   2.639460   0.000000   0.000000
                                        CHANNELS 3 Zrotation Xrotation Yrotation
                                        End Site
                                        {
                                            OFFSET   2.582190   0.000000   0.000000
                                        }
                                    }
                                }
                            }
                            JOINT LeftFinger1
                            {
                                OFFSET   8.364480   0.000000   3.252850
                                CHANNELS 3 Zrotation Xrotation Yrotation
                                JOINT LeftFinger11
                                {
                                    OFFSET   4.646930   0.000000   0.000000
                                    CHANNELS 3 Zrotation Xrotation Yrotation
                                    JOINT LeftFinger12
                                    {
                                        OFFSET   2.323470   0.000000   0.000000
                                        CHANNELS 3 Zrotation Xrotation Yrotation
                                        End Site
                                        {
                                            OFFSET   2.273050   0.000000   0.000000
                                        }
                                    }
                                }
                            }
                            JOINT LeftFinger2
                            {
                                OFFSET   8.364490   0.000016   1.078090
                                CHANNELS 3 Zrotation Xrotation Yrotation
                                JOINT LeftFinger21
                                {
                                    OFFSET   5.111610   0.000000   0.000000
                                    CHANNELS 3 Zrotation Xrotation Yrotation
                                    JOINT LeftFinger22
                                    {
                                        OFFSET   2.788150   0.000016   0.000000
                                        CHANNELS 3 Zrotation Xrotation Yrotation
                                        End Site
                                        {
                                            OFFSET   2.727660   0.000000   0.000000
                                        }
                                    }
                                }
                            }
                            JOINT LeftFinger3
                            {
                                OFFSET   7.899780   0.000015  -1.078090
                                CHANNELS 3 Zrotation Xrotation Yrotation
                                JOINT LeftFinger31
                                {
                                    OFFSET   4.646930   0.000000   0.000000
                                    CHANNELS 3 Zrotation Xrotation Yrotation
                                    JOINT LeftFinger32
                                    {
                                        OFFSET   2.323470   0.000000   0.000000
                                        CHANNELS 3 Zrotation Xrotation Yrotation
                                        End Site
                                        {
                                            OFFSET   2.273050   0.000000   0.000000
                                        }
                                    }
                                }
                            }
                            JOINT LeftFinger4
                            {
                                OFFSET   7.435090   0.000000  -3.252850
                                CHANNELS 3 Zrotation Xrotation Yrotation
                                JOINT LeftFinger41
                                {
                                    OFFSET   3.717550   0.000000   0.000000
                                    CHANNELS 3 Zrotation Xrotation Yrotation
                                    JOINT LeftFinger42
                                    {
                                        OFFSET   1.858770   0.000000   0.000000
                                        CHANNELS 3 Zrotation Xrotation Yrotation
                                        End Site
                                        {
                                            OFFSET   1.818440   0.000000   0.000000
                                        }
                                    }
                                }
                            }
                        }
                    }
                }
            }
            JOINT RightCollar
            {
                OFFSET  -3.911910  19.017000  -0.467062
                CHANNELS 3 Zrotation Xrotation Yrotation
                JOINT RightShoulder
                {
                    OFFSET -10.383700   0.000014   0.000000
                    CHANNELS 3 Zrotation Xrotation Yrotation
                    JOINT RightElbow
                    {
                        OFFSET -26.662100   0.001225   0.001091
                        CHANNELS 3 Zrotation Xrotation Yrotation
                        JOINT RightWrist
                        {
                            OFFSET -28.869000  -0.000020  -0.000085
                            CHANNELS 3 Zrotation Xrotation Yrotation
                            JOINT RightFinger0
                            {
                                OFFSET  -2.044650  -2.323490   3.252850
                                CHANNELS 3 Zrotation Xrotation Yrotation
                                JOINT RightFinger01
                                {
                                    OFFSET  -3.088130   0.000000   0.000000
                                    CHANNELS 3 Zrotation Xrotation Yrotation
                                    JOINT RightFinger02
                                    {
                                        OFFSET  -2.639460   0.000000   0.000000
                                        CHANNELS 3 Zrotation Xrotation Yrotation
                                        End Site
                                        {
                                            OFFSET  -2.582190   0.000000   0.000000
                                        }
                                    }
                                }
                            }
                            JOINT RightFinger1
                            {
                                OFFSET  -8.364480   0.000000   3.252850
                                CHANNELS 3 Zrotation Xrotation Yrotation
                                JOINT RightFinger11
                                {
                                    OFFSET  -4.646930   0.000000   0.000000
                                    CHANNELS 3 Zrotation Xrotation Yrotation
                                    JOINT RightFinger12
                                    {
                                        OFFSET  -2.323470   0.000000   0.000000
                                        CHANNELS 3 Zrotation Xrotation Yrotation
                                        End Site
                                        {
                                            OFFSET  -2.273050   0.000000   0.000000
                                        }
                                    }
                                }
                            }
                            JOINT RightFinger2
                            {
                                OFFSET  -8.364480   0.000000   1.078090
                                CHANNELS 3 Zrotation Xrotation Yrotation
                                JOINT RightFinger21
                                {
                                    OFFSET  -5.111620   0.000000   0.000000
                                    CHANNELS 3 Zrotation Xrotation Yrotation
                                    JOINT RightFinger22
                                    {
                                        OFFSET  -2.788160   0.000000   0.000000
                                        CHANNELS 3 Zrotation Xrotation Yrotation
                                        End Site
                                        {
                                            OFFSET  -2.727660   0.000000   0.000000
                                        }
                                    }
                                }
                            }
                            JOINT RightFinger3
                            {
                                OFFSET  -7.899780   0.000000  -1.078090
                                CHANNELS 3 Zrotation Xrotation Yrotation
                                JOINT RightFinger31
                                {
                                    OFFSET  -4.646930   0.000000   0.000000
                                    CHANNELS 3 Zrotation Xrotation Yrotation
                                    JOINT RightFinger32
                                    {
                                        OFFSET  -2.323470   0.000000   0.000000
                                        CHANNELS 3 Zrotation Xrotation Yrotation
                                        End Site
                                        {
                                            OFFSET  -2.273050   0.000000   0.000000
                                        }
                                    }
                                }
                            }
                            JOINT RightFinger4
                            {
                                OFFSET  -7.435090   0.000000  -3.252850
                                CHANNELS 3 Zrotation Xrotation Yrotation
                                JOINT RightFinger41
                                {
                                    OFFSET  -3.717550   0.000000   0.000000
                                    CHANNELS 3 Zrotation Xrotation Yrotation
                                    JOINT RightFinger42
                                    {
                                        OFFSET  -1.858760   0.000000   0.000000
                                        CHANNELS 3 Zrotation Xrotation Yrotation
                                        End Site
                                        {
                                            OFFSET  -1.818440   0.000000   0.000000
                                        }
                                    }
                                }
                            }
                        }
                    }
                }
            }
        }
    }
    JOINT LeftHip
    {
        OFFSET   9.783030   0.000000   0.000000
        CHANNELS 3 Zrotation Xrotation Yrotation
        JOINT LeftKnee
        {
            OFFSET   0.000063 -41.789100   0.000608
            CHANNELS 3 Zrotation Xrotation Yrotation
            JOINT LeftAnkle
            {
                OFFSET   0.000048 -41.133200  -0.000184
                CHANNELS 3 Zrotation Xrotation Yrotation
                JOINT LeftToe
                {
                    OFFSET   0.000000  -6.358960  14.674500
                    CHANNELS 3 Zrotation Xrotation Yrotation
                    End Site
                    {
                        OFFSET   0.000000   0.000000   3.913200
                    }
                }
            }
        }
    }
    JOINT RightHip
    {
        OFFSET  -9.783030   0.000000   0.000000
        CHANNELS 3 Zrotation Xrotation Yrotation
        JOINT RightKnee
        {
            OFFSET   0.000071 -41.789100   0.001239
            CHANNELS 3 Zrotation Xrotation Yrotation
            JOINT RightAnkle
            {
                OFFSET   0.000037 -41.133200  -0.000166
                CHANNELS 3 Zrotation Xrotation Yrotation
                JOINT RightToe
                {
                    OFFSET   0.000000  -6.358960  14.674500
                    CHANNELS 3 Zrotation Xrotation Yrotation
                    End Site
                    {
                        OFFSET   0.000000   0.000000   3.913200
                    }
                }
            }
        }
    }
}
MOTION
Frames: 6
Frame Time:   0.016667
  1.138390  89.592600   0.181925  -0.489904   0.916754   0.302164   0.449793  -0.811278  -0.795593   0.888417  -1.628720  -1.585040  -0.919574   3.317430   0.059492  -1.525060   6.722990   6.564830  -0.270215   3.179030  11.841100 -82.794700   3.835750   4.040110   0.723311   6.559620 -15.225300  12.118900  -7.074530   1.256060  40.608000  37.048200 -51.644900 -34.944800   0.005590   0.003968 -12.756300   0.006317   0.005717 -38.585600  -3.503680   4.391490 -31.680000  -0.000238  -0.001479 -22.163100   0.001207   0.012601 -33.874400  -3.624530   5.370500 -51.065900   0.000729   0.000241 -34.009900   0.000381   0.000716 -28.540500  -3.930940   7.185980 -41.373700  -0.013881  -0.003601 -27.554900  -0.004302  -0.006558 -36.981100  -4.945730   6.531080 -55.895100  -0.005554  -0.003500 -37.226200   0.003441  -0.002555   3.396310   5.494270   2.957860  75.841700  -7.116740  -3.005230   3.335620  -4.904590  13.280700 -21.872900  -2.137520   1.796660 -43.202600  43.082200  87.415000  26.921600   0.003671  -0.004428   8.456400  -0.002304  -0.013782  34.171300   0.913895   1.345950  27.967100  -0.002012   0.006481  19.577000   0.000798   0.005785  30.408600  -2.599840  -4.419470  45.763300   0.000000   0.007040  30.478400   0.002505   0.003881  33.233500  -4.418530  -6.708630  50.224100  -0.000061   0.003053  33.457600   0.006273   0.002990  44.733700  -5.668510  -5.693300  67.523700   0.000706   0.002568  44.970800   0.014446   0.000937   1.529380  -0.176200  -6.072520   0.169910   0.679181  13.246100  -2.641920  -1.651650   1.742850   0.000000   0.000000   0.000000  -0.456188  -0.198607  -1.711230  -0.330886   1.725500 -11.747900  -0.070639  -2.165490  -6.489900   0.000000   0.000000   0.000000
  1.135250  89.592600   0.189014  -0.489964   0.900622   0.311420   0.458710  -0.787913  -0.822662   0.906183  -1.582320  -1.639230  -0.944228   3.317480   0.059666  -1.566050   6.722170   6.639610  -0.300961   3.134900  11.909700 -82.772900   3.918320   4.025230   0.714255   6.568860 -15.304100  12.106300  -7.071380   1.234860  40.629200  37.069700 -51.644800 -34.928800   0.005584   0.003965 -12.745000   0.006321   0.005862 -38.578500  -3.503680   4.391660 -31.674100  -0.000238  -0.001479 -22.163200   0.001206   0.012601 -33.886400  -3.624600   5.370680 -51.084000   0.000729   0.000240 -34.022000   0.000382   0.000712 -28.538800  -3.936940   7.196850 -41.406000  -0.013881  -0.003601 -27.576400  -0.004302  -0.006557 -36.991700  -4.954490   6.540030 -55.912400  -0.005553  -0.003502 -37.237700   0.003440  -0.002556   3.375190   5.446090   3.034680  75.832900  -7.066700  -3.004910   3.337630  -4.918530  13.319900 -21.846600  -2.105240   1.827620 -43.195100  43.073700  87.404100  26.920500   0.003660  -0.004406   8.456400  -0.002305  -0.013770  34.194300   0.910909   1.340520  27.986000  -0.002011   0.006484  19.590200   0.000798   0.005785  30.415000  -2.608310  -4.432410  45.773400   0.000000   0.007041  30.485100   0.002503   0.003880  33.231200  -4.428680  -6.722720  50.229200  -0.000060   0.003057  33.457400   0.006274   0.002994  44.748400  -5.682330  -5.704030  67.546900   0.000708   0.002541  44.986300   0.014459   0.000938   1.530550  -0.161684  -6.072760   0.167522   0.690077  13.246100  -2.642900  -1.658590   1.730370   0.000000   0.000000   0.000000  -0.445845  -0.158032  -1.727090  -0.333491   1.716140 -11.751500  -0.072362  -2.177920  -6.479090  -0.000000   0.000000   0.000000
  1.129230  89.592600   0.201339  -0.490030   0.872325   0.325854   0.474075  -0.748778  -0.869544   0.936850  -1.504640  -1.733080  -0.982272   3.317850   0.059902  -1.628600   6.721780   6.762730  -0.353214   3.065310  12.036300 -82.737600   4.067940   3.996110   0.700580   6.588670 -15.432700  12.092700  -7.068250   1.206230  40.662000  37.107000 -51.638800 -34.912800   0.005570   0.003957 -12.733800   0.006329   0.006063 -38.568600  -3.503700   4.391910 -31.665900  -0.000240  -0.001478 -22.163300   0.001203   0.012605 -33.906000  -3.624670   5.370870 -51.113800   0.000729   0.000239 -34.041800   0.000383   0.000704 -28.536400  -3.945910   7.213100 -41.458600  -0.013882  -0.003601 -27.611400  -0.004301  -0.006554 -37.010200  -4.967890   6.553170 -55.942200  -0.005552  -0.003504 -37.257500   0.003439  -0.002556   3.343650   5.361010   3.166220  75.826900  -6.963850  -3.004250   3.319210  -4.931730  13.394700 -21.802000  -2.072960   1.858580 -43.187500  43.065100  87.393100  26.912800   0.003630  -0.004358   8.456400  -0.002309  -0.013758  34.217900   0.894648   1.315340  28.004800  -0.002010   0.006487  19.603400   0.000799   0.005786  30.420300  -2.623480  -4.457450  45.783400   0.000000   0.007042  30.491800   0.002501   0.003877  33.227500  -4.444430  -6.746600  50.234300  -0.000059   0.003066  33.456000   0.006274   0.003001  44.761500  -5.703860  -5.722990  67.570100   0.000712   0.002482  45.001700   0.014494   0.000939   1.532900  -0.136175  -6.073000   0.163902   0.710721  13.246200  -2.646570  -1.673060   1.712760  -0.000000   0.000000   0.000000  -0.434409  -0.081896  -1.751210  -0.338814   1.692720 -11.761900  -0.075163  -2.198870  -6.458470  -0.000000   0.000000  -0.000000
  1.122870  89.592700   0.212405  -0.488165   0.847088   0.337315   0.487667  -0.718027  -0.911642   0.963960  -1.443700  -1.817350  -1.007170   3.324900   0.059951  -1.670730   6.735710   6.862120  -0.398981   3.021420  12.167900 -82.708800   4.213990   3.963720   0.692028   6.616300 -15.533700  12.100800  -7.089780   1.199850  40.684800  37.140600 -51.618400 -34.912700   0.005549   0.003944 -12.735500   0.006340   0.006135 -38.564500  -3.503730   4.392010 -31.662600  -0.000243  -0.001480 -22.163200   0.001197   0.012612 -33.920900  -3.624660   5.369850 -51.136200   0.000731   0.000238 -34.056700   0.000383   0.000693 -28.535700  -3.949200   7.218930 -41.498000  -0.013882  -0.003602 -27.637700  -0.004300  -0.006551 -37.026500  -4.973830   6.557080 -55.967400  -0.005553  -0.003504 -37.274300   0.003440  -0.002560   3.324060   5.285490   3.278710  75.843800  -6.844820  -3.001050   3.258050  -4.908120  13.471400 -21.755000  -2.101540   1.825460 -43.190900  43.069000  87.398200  26.888900   0.003581  -0.004290   8.446110  -0.002314  -0.013762  34.215400   0.844524   1.241760  28.001800  -0.002009   0.006482  19.601300   0.000798   0.005789  30.402800  -2.641790  -4.492940  45.759700   0.000000   0.007039  30.476000   0.002500   0.003876  33.211400  -4.456650  -6.771690  50.212300  -0.000060   0.003076  33.440700   0.006273   0.003008  44.752400  -5.720880  -5.745170  67.561700   0.000716   0.002405  44.996100   0.014550   0.000937   1.536540  -0.115471  -6.072310   0.164478   0.738815  13.246500  -2.654310  -1.693270   1.707290   0.000000   0.000000   0.000000  -0.431497   0.014426  -1.766150  -0.335077   1.645880 -11.778400  -0.077442  -2.216600  -6.438850  -0.000000   0.000000  -0.000000
  1.115230  89.592800   0.223825  -0.485042   0.819440   0.343596   0.501259  -0.685121  -0.954094   0.991148  -1.378470  -1.902370  -1.026720   3.341150   0.059994  -1.702740   6.768440   6.952150  -0.442882   2.975350  12.305600 -82.686300   4.372170   3.926110   0.686291   6.644430 -15.623200  12.120900  -7.123480   1.196470  40.700400  37.174800 -51.597400 -34.912700   0.005523   0.003926 -12.739800   0.006352   0.006153 -38.563300  -3.503750   4.392040 -31.661500  -0.000246  -0.001482 -22.163100   0.001189   0.012622 -33.936200  -3.624550   5.367180 -51.159200   0.000733   0.000237 -34.072000   0.000382   0.000679 -28.534500  -3.954760   7.228960 -41.536600  -0.013883  -0.003604 -27.663400  -0.004299  -0.006547 -37.043900  -4.982820   6.564670 -55.994700  -0.005553  -0.003503 -37.292500   0.003441  -0.002564   3.312410   5.199050   3.395610  75.883500  -6.694330  -2.983010   3.159410  -4.847370  13.563900 -21.727500  -2.147610   1.749410 -43.214700  43.096000  87.433500  26.810700   0.003518  -0.004220   8.405370  -0.002320  -0.013765  34.212200   0.807675   1.187940  27.998700  -0.002007   0.006475  19.599100   0.000796   0.005793  30.374200  -2.653410  -4.516330  45.718400   0.000000   0.007034  30.448400   0.002500   0.003874  33.180300  -4.463270  -6.786990  50.168000  -0.000061   0.003089  33.411900   0.006270   0.003017  44.713500  -5.730190  -5.759130  67.503200   0.000722   0.002323  44.957100   0.014619   0.000936   1.541970  -0.088262  -6.067530   0.169173   0.757161  13.246900  -2.663370  -1.711920   1.701810   0.000000   0.000000  -0.000000  -0.429532   0.085884  -1.777280  -0.323987   1.613020 -11.802100  -0.079286  -2.233620  -6.411410  -0.000000   0.000000  -0.000000
  1.106380  89.592900   0.235190  -0.482608   0.789309   0.341273   0.514094  -0.647154  -0.993737   1.016980  -1.303110  -1.981830  -1.040160   3.362980   0.060149  -1.721740   6.812790   7.022280  -0.477723   2.913450  12.435200 -82.680500   4.535900   3.885890   0.685321   6.664050 -15.691000  12.150000  -7.145200   1.181470  40.715000  37.209500 -51.589400 -34.915500   0.005492   0.003899 -12.745200   0.006360   0.004807 -38.568200  -3.503780   4.390240 -31.665500  -0.000249  -0.001483 -22.165900   0.001179   0.012633 -33.953300  -3.624280   5.362860 -51.184800   0.000735   0.000235 -34.089000   0.000383   0.000662 -28.532900  -3.970220   7.257260 -41.574800  -0.013883  -0.003604 -27.688800  -0.004297  -0.006542 -37.062200  -5.004580   6.588660 -56.025700  -0.005554  -0.003503 -37.313100   0.003443  -0.002567   3.312640   5.091290   3.519720  75.953900  -6.506680  -2.936740   3.015650  -4.738910  13.664200 -21.758700  -2.188940   1.631620 -43.371200  43.274200  87.661300  26.652600   0.003438  -0.004166   8.326330  -0.002327  -0.013758  34.231300   0.819427   1.204060  28.014500  -0.002003   0.006474  19.610200   0.000796   0.005799  30.350500  -2.619400  -4.461870  45.679200   0.000000   0.007030  30.422300   0.002500   0.003870  33.148900  -4.405360  -6.705640  50.112100  -0.000063   0.003106  33.374700   0.006267   0.003029  44.617900  -5.651790  -5.696310  67.347400   0.000730   0.002244  44.853400   0.014698   0.000938   1.548870  -0.045916  -6.053200   0.175430   0.751338  13.247800  -2.670780  -1.719430   1.689020   0.000000   0.000000  -0.000000  -0.432226   0.096193  -1.782460  -0.312966   1.640360 -11.836000  -0.080246  -2.248610  -6.370440   0.000000   0.000000  -0.000000
